<?xml version="1.0" encoding="UTF-8"?>
<svg version="1.1" xmlns="http://www.w3.org/2000/svg" width="500" height="500">
<path d="M0 0 C4.0936436 0.68227393 4.44582404 0.90271431 6.8125 4 C7.82124258 5.52247886 8.79919588 7.06568124 9.75 8.625 C10.49056641 9.79869141 10.49056641 9.79869141 11.24609375 10.99609375 C14.41893229 16.14680566 17.30791964 21.44308143 20.1796875 26.765625 C22.35491258 30.72648261 24.64341809 34.61721385 26.94140625 38.5078125 C30.07258038 43.90452299 33.06412324 49.37887521 36.07421875 54.84375 C40.55575311 62.97135824 45.12505471 71.03381086 49.8581543 79.01757812 C53.73784589 85.5717517 57.50837914 92.18601866 61.27539062 98.80541992 C64.88253991 105.13363973 68.54551874 111.42608988 72.27734375 117.68164062 C74.45991238 121.35854632 76.5465001 125.073268 78.578125 128.8359375 C82.53363258 136.13405663 86.80239119 143.24619656 91.06640625 150.3671875 C91.67097656 151.39070312 92.27554688 152.41421875 92.8984375 153.46875 C93.72093994 154.84836914 93.72093994 154.84836914 94.56005859 156.25585938 C95.75 158.625 95.75 158.625 95.75 161.625 C96.41 161.625 97.07 161.625 97.75 161.625 C98.10191406 162.27984375 98.45382812 162.9346875 98.81640625 163.609375 C102.20285327 169.86943894 105.73238716 176.01161092 109.4296875 182.09375 C110.75 184.625 110.75 184.625 110.75 187.625 C111.41 187.625 112.07 187.625 112.75 187.625 C113.24306641 188.53765625 113.24306641 188.53765625 113.74609375 189.46875 C114.22175781 190.3453125 114.69742188 191.221875 115.1875 192.125 C115.72503906 193.12015625 116.26257813 194.1153125 116.81640625 195.140625 C118.22584873 197.68046882 119.66416705 200.17922316 121.15234375 202.671875 C121.56105713 203.36732422 121.96977051 204.06277344 122.39086914 204.77929688 C123.19948797 206.15242923 124.01992478 207.51868579 124.85327148 208.87695312 C127.40982438 213.2567968 128.38471507 216.41774573 127.75 221.625 C125.75 223.625 125.75 223.625 122.4375 224.0625 C116.16000698 223.95806851 110.43447028 221.05129829 104.75 218.625 C107.52909937 224.42369772 110.52737239 230.06112132 113.75 235.625 C116.97262761 241.18887868 119.97090063 246.82630228 122.75 252.625 C118.78573554 252.625 115.49388625 251.2662654 111.8125 249.9375 C110.66297852 249.52757812 110.66297852 249.52757812 109.49023438 249.109375 C104.21936883 247.20956596 99.05897358 245.11592126 93.91015625 242.90625 C89.38627661 241.07209361 84.77904705 239.49216196 80.15039062 237.94335938 C76.20231364 236.59440141 72.4232546 235.04845771 68.63989258 233.28686523 C63.20826561 230.801006 57.71047549 228.56497514 52.140625 226.41015625 C51.17074646 226.03193222 50.20086792 225.65370819 49.20159912 225.26402283 C46.13551767 224.06895217 43.06784109 222.87804528 40 221.6875 C36.95511085 220.50291896 33.91056799 219.31745623 30.86633301 218.13119507 C28.89651027 217.36427973 26.92605899 216.59897666 24.95495605 215.83535767 C20.67321526 214.17339387 16.40287199 212.49580386 12.16601562 210.72216797 C11.48198669 210.43812607 10.79795776 210.15408417 10.09320068 209.86143494 C8.32507934 209.1226114 6.56217467 208.37133609 4.79980469 207.61889648 C-1.61113395 205.52964487 -6.23413792 207.07798098 -12.2734375 209.5703125 C-13.06739426 209.88794556 -13.86135101 210.20557861 -14.67936707 210.53283691 C-17.33169988 211.59605317 -19.97813357 212.67325567 -22.625 213.75 C-24.50463769 214.50561274 -26.38477742 215.25997765 -28.26538086 216.01318359 C-31.29442871 217.22642277 -34.3231638 218.44038647 -37.35050964 219.65786743 C-49.25196134 224.4420817 -61.19311942 229.12502911 -73.13482666 233.80755615 C-77.88546099 235.67083291 -82.63490833 237.53712357 -87.38421631 239.40377808 C-89.60154039 240.27419696 -91.81950119 241.14299587 -94.03814697 242.01004028 C-98.95660711 243.93239917 -103.8673135 245.86856599 -108.75732422 247.86230469 C-109.59198715 248.19861908 -110.42665009 248.53493347 -111.28660583 248.88143921 C-112.80989899 249.49603845 -114.32981376 250.11911347 -115.84535217 250.75259399 C-120.70016767 252.69735635 -120.70016767 252.69735635 -123.72485352 252.29931641 C-124.22815186 252.07679199 -124.7314502 251.85426758 -125.25 251.625 C-124.81655273 250.87404053 -124.38310547 250.12308105 -123.93652344 249.34936523 C-122.31124134 246.53335335 -120.6860942 243.71726365 -119.06103516 240.90112305 C-118.36089299 239.68787623 -117.66069878 238.47465944 -116.96044922 237.26147461 C-113.37866535 231.05594464 -109.7969864 224.85050964 -106.25 218.625 C-107.64412109 219.16640625 -107.64412109 219.16640625 -109.06640625 219.71875 C-110.31487858 220.1881005 -111.56358949 220.65681673 -112.8125 221.125 C-114.03066406 221.5890625 -115.24882812 222.053125 -116.50390625 222.53125 C-120.31998984 223.64543499 -123.29947053 223.90857761 -127.25 223.625 C-129.1875 222.5 -129.1875 222.5 -130.25 220.625 C-131.45047877 215.15615228 -128.75088948 211.67271062 -125.91796875 207.23828125 C-124.30102798 204.70494782 -122.82224237 202.13323468 -121.375 199.5 C-120.96507812 198.75492188 -120.55515625 198.00984375 -120.1328125 197.2421875 C-119.84148437 196.70851563 -119.55015625 196.17484375 -119.25 195.625 C-118.59 195.625 -117.93 195.625 -117.25 195.625 C-117.13462891 195.05692627 -117.01925781 194.48885254 -116.90039062 193.90356445 C-116.18181094 191.38610792 -115.15114797 189.43509829 -113.84375 187.16796875 C-113.35165039 186.31017822 -112.85955078 185.4523877 -112.35253906 184.56860352 C-111.82370117 183.65908936 -111.29486328 182.7495752 -110.75 181.8125 C-110.20827148 180.87269287 -109.66654297 179.93288574 -109.10839844 178.96459961 C-105.60047941 172.89714142 -102.03065327 166.86923992 -98.40209961 160.87329102 C-95.29081536 155.72540168 -92.310842 150.50747731 -89.33984375 145.27734375 C-85.80774558 139.08053199 -82.16253043 132.94931208 -78.53662109 126.80712891 C-77.25729488 124.63737224 -75.98153404 122.46556169 -74.70703125 120.29296875 C-70.75158051 113.55187079 -66.78025762 106.82168742 -62.75 100.125 C-56.07054111 89.02226149 -49.535444 77.83557727 -43.01538086 66.63867188 C-38.2022154 58.37393899 -33.37941417 50.11807976 -28.43896484 41.92871094 C-25.70020239 37.38655919 -22.99944064 32.82298623 -20.3125 28.25 C-19.69616699 27.20199219 -19.69616699 27.20199219 -19.06738281 26.1328125 C-16.85822898 22.37328451 -14.6575819 18.60897046 -12.46484375 14.83984375 C-12.01036865 14.06108887 -11.55589355 13.28233398 -11.08764648 12.47998047 C-10.21347625 10.98181319 -9.34178514 9.48219588 -8.47290039 7.98095703 C-4.29212041 0.82540777 -4.29212041 0.82540777 0 0 Z M-0.25 18.625 C-0.806875 19.62917969 -1.36375 20.63335937 -1.9375 21.66796875 C-6.28833203 29.47776985 -10.76053466 37.16536211 -15.48828125 44.75390625 C-17.37758264 47.83292293 -19.12394251 50.96555051 -20.8515625 54.13671875 C-23.05593097 58.05901684 -25.40354646 61.89535934 -27.73095703 65.74536133 C-31.0642508 71.27569314 -34.26302361 76.87459549 -37.42578125 82.50390625 C-38.65727136 84.61088826 -39.9542662 86.68073111 -41.30859375 88.7109375 C-43.04510221 91.31744718 -44.54461373 93.91798554 -46 96.6875 C-48.24503916 100.86169342 -50.6218305 104.9127961 -53.125 108.9375 C-55.75300252 113.16494225 -58.300187 117.4169607 -60.75 121.75 C-65.1621442 129.54128639 -69.74492472 137.23009612 -74.32077026 144.92584229 C-78.81535945 152.48684067 -83.24905052 160.07473444 -87.56640625 167.73828125 C-89.89493372 171.73081443 -92.42338665 175.58180557 -95 179.41796875 C-96.49640914 181.63732748 -96.49640914 181.63732748 -96.25 184.625 C-96.91 184.625 -97.57 184.625 -98.25 184.625 C-98.68699219 185.53378906 -98.68699219 185.53378906 -99.1328125 186.4609375 C-102.19597304 192.7221147 -105.58140214 198.69977321 -109.25 204.625 C-107.58220768 204.29734522 -105.91576459 203.9628124 -104.25 203.625 C-103.48300781 203.48964844 -102.71601563 203.35429687 -101.92578125 203.21484375 C-93.6959743 200.94314497 -90.78263691 195.2083423 -86.8046875 188.22265625 C-86.38541992 187.46742676 -85.96615234 186.71219727 -85.53417969 185.93408203 C-84.26155665 183.64578 -82.95427656 181.38149279 -81.6328125 179.12109375 C-79.79628529 175.97697525 -77.97298108 172.82581301 -76.16015625 169.66796875 C-73.10541196 164.3588544 -69.99526636 159.08330836 -66.875 153.8125 C-66.32908203 152.89025635 -65.78316406 151.9680127 -65.22070312 151.01782227 C-64.11202646 149.14554617 -63.0031395 147.27339459 -61.89404297 145.40136719 C-59.76719091 141.80965919 -57.64466353 138.21540614 -55.5222168 134.62109375 C-50.39181652 125.93316279 -45.25150959 117.25113724 -40.10580444 108.57226562 C-30.75884066 92.80652661 -21.46051923 77.01448512 -12.24560547 61.17114258 C-11.40473389 59.7271106 -11.40473389 59.7271106 -10.546875 58.25390625 C-10.00224609 57.31820801 -9.45761719 56.38250977 -8.89648438 55.41845703 C-6.75388427 51.78328052 -4.54736413 48.18833778 -2.32519531 44.60131836 C-1.09070204 42.70717115 -1.09070204 42.70717115 -1.25 40.625 C2.54687178 41.89062393 2.80418996 42.99994639 4.68359375 46.453125 C5.24361084 47.46947021 5.80362793 48.48581543 6.38061523 49.53295898 C6.97688721 50.63583252 7.57315918 51.73870605 8.1875 52.875 C9.45754034 55.1840301 10.72838555 57.49261766 12 59.80078125 C12.63421875 60.95787598 13.2684375 62.1149707 13.921875 63.30712891 C16.46329954 67.91957008 19.06651742 72.494924 21.6875 77.0625 C22.16485596 77.89587891 22.64221191 78.72925781 23.1340332 79.58789062 C24.67068151 82.26808526 26.20995235 84.94675725 27.75 87.625 C28.34989746 88.66865723 28.94979492 89.71231445 29.56787109 90.78759766 C38.65487584 106.58881797 38.65487584 106.58881797 47.875 122.3125 C52.23952788 129.68657893 56.44600921 137.14614606 60.64624023 144.61474609 C65.24732649 152.77846266 69.96345532 160.87136872 74.70751953 168.95263672 C78.77843569 175.9056377 82.73864274 182.91111107 86.55541992 190.00708008 C89.71758989 195.81402466 92.35185595 200.56385971 98.8125 203 C99.66972656 203.33773437 100.52695312 203.67546875 101.41015625 204.0234375 C103.87845346 204.88356432 103.87845346 204.88356432 106.75 203.625 C106.09773437 202.52542969 105.44546875 201.42585937 104.7734375 200.29296875 C100.47490175 193.02796553 96.21940309 185.75876574 92.21875 178.32421875 C89.54964657 173.41903133 86.74785305 168.58864213 83.96728516 163.74609375 C81.57817625 159.58312179 79.19512265 155.41668674 76.8125 151.25 C76.29550537 150.34604492 75.77851074 149.44208984 75.24584961 148.51074219 C72.20379047 143.18630046 69.18382451 137.85028816 66.1875 132.5 C58.9992889 119.67765338 51.56924762 106.99505193 44.09790039 94.33618164 C41.71816727 90.29632528 39.40153175 86.23136057 37.15234375 82.1171875 C35.09534967 78.46158242 32.9485061 74.85985421 30.8125 71.25 C28.02572566 66.53908488 25.2734923 61.82525938 22.6875 57 C19.98293261 51.95862509 17.04042692 47.08047158 14.07714844 42.18896484 C11.26559267 37.53046256 8.60830231 32.80680152 6.03515625 28.01171875 C4.33162346 24.84801499 2.54750693 21.73606969 0.75 18.625 C0.42 18.625 0.09 18.625 -0.25 18.625 Z " fill="#45423E" transform="translate(251.25,123.375)"/>
<path d="M0 0 C1.81054688 0.19824219 1.81054688 0.19824219 4 1 C5.54882812 3.07519531 5.54882812 3.07519531 7.03125 5.828125 C7.58804443 6.84447021 8.14483887 7.86081543 8.71850586 8.90795898 C9.60034546 10.56226929 9.60034546 10.56226929 10.5 12.25 C11.76087175 14.55905646 13.02260321 16.86764366 14.28515625 19.17578125 C14.91309082 20.33287598 15.54102539 21.4899707 16.18798828 22.68212891 C18.71116473 27.3021731 21.31457639 31.87355923 23.9375 36.4375 C24.41493652 37.27087891 24.89237305 38.10425781 25.38427734 38.96289062 C26.92071493 41.64316009 28.45997223 44.32179184 30 47 C30.89984619 48.56548584 30.89984619 48.56548584 31.81787109 50.16259766 C40.90487584 65.96381797 40.90487584 65.96381797 50.125 81.6875 C54.48952788 89.06157893 58.69600921 96.52114606 62.89624023 103.98974609 C67.49684074 112.15260079 72.21357506 120.2439725 76.95532227 128.32543945 C81.04546078 135.31412856 85.0282816 142.35421686 88.89331055 149.4699707 C92.46664343 156.05981549 92.46664343 156.05981549 98 161 C96.02 161 94.04 161 92 161 C92 160.34 92 159.68 92 159 C91.43837158 158.8457959 90.87674316 158.6915918 90.2980957 158.53271484 C82.73330993 156.36787993 75.48895988 153.54400611 68.1875 150.625 C65.80617328 149.67922485 63.42466361 148.73391021 61.04296875 147.7890625 C59.29898804 147.09550659 59.29898804 147.09550659 57.51977539 146.38793945 C52.94846252 144.58535128 48.35950264 142.83066425 43.76611328 141.08520508 C41.36789324 140.14433234 39.02560455 139.14228783 36.6875 138.0625 C31.93781411 135.90117504 27.05904951 134.09698018 22.16503906 132.29467773 C16.71072641 130.28542965 11.32854115 128.12414729 5.96484375 125.8828125 C-0.76189191 123.87985827 -5.82054232 125.36383848 -12.0625 128.0625 C-13.81563034 128.79093272 -15.56961929 129.51730066 -17.32421875 130.2421875 C-18.34306152 130.6659668 -19.3619043 131.08974609 -20.41162109 131.52636719 C-27.19649932 134.31270036 -34.02249967 136.99606752 -40.84518433 139.6882019 C-43.32121416 140.66625415 -45.79560024 141.64837054 -48.26977539 142.63110352 C-56.44891997 145.87127423 -64.63888065 149.01010919 -72.95141602 151.89477539 C-77.16837461 153.42357907 -81.27182065 155.18432084 -85.37890625 156.984375 C-87.92681267 157.97164127 -90.32169512 158.49954968 -93 159 C-88.94938892 151.47926487 -84.75775694 144.05630307 -80.4375 136.6875 C-79.83107666 135.65061035 -79.22465332 134.6137207 -78.59985352 133.54541016 C-72.96044762 123.91194352 -67.28363818 114.30067045 -61.59570312 104.69580078 C-59.48760318 101.13435041 -57.38323913 97.57069947 -55.27880859 94.00708008 C-50.14598771 85.31561888 -45.0036877 76.62981089 -39.85580444 67.94726562 C-29.40968642 50.32755785 -19.04273738 32.6638407 -8.72900391 14.96630859 C-5.82068723 9.9767509 -2.91030981 4.98839533 0 0 Z " fill="#64B6A9" transform="translate(250,164)"/>
<path d="M0 0 C0.82016602 0.31729568 1.64033203 0.63459137 2.48535156 0.96150208 C5.09715043 1.97393035 7.70479452 2.99661248 10.3125 4.01953125 C12.03229476 4.68751185 13.75234497 5.35483515 15.47265625 6.02148438 C24.34871786 9.46781465 33.20096505 12.96989706 42.02636719 16.54394531 C45.5151831 17.91147821 49.0233403 19.16358501 52.5625 20.39453125 C57.65047144 22.1835828 62.51064119 24.21941772 67.390625 26.5078125 C70.88910146 28.09335196 74.43271651 29.53468623 78 30.95703125 C78.64203369 31.21532715 79.28406738 31.47362305 79.94555664 31.73974609 C83.32761338 33.08871709 86.71888184 34.29229532 90.1875 35.39453125 C91.21875 35.86890625 92.25 36.34328125 93.3125 36.83203125 C93.67307015 38.49301832 94.00067485 40.16120691 94.3125 41.83203125 C95.40969622 43.97324327 96.58647092 46.07439088 97.8125 48.14453125 C98.53197597 49.37197058 99.25069394 50.59985447 99.96875 51.828125 C100.34773437 52.47249512 100.72671875 53.11686523 101.1171875 53.78076172 C103.22532462 57.39852481 105.26605806 61.05413239 107.3125 64.70703125 C108.08327207 66.07946149 108.85409999 67.45186037 109.625 68.82421875 C110.181875 69.81679688 110.73875 70.809375 111.3125 71.83203125 C110.6525 72.49203125 109.9925 73.15203125 109.3125 73.83203125 C108.74144531 73.60128906 108.17039062 73.37054688 107.58203125 73.1328125 C102.71662924 71.1758225 97.83783568 69.26245173 92.9375 67.39453125 C88.67126897 65.76406077 84.451448 64.05995223 80.25 62.26953125 C75.4361957 60.23633233 70.58642335 58.54565248 65.58984375 57.01953125 C62.72017286 55.97974585 60.03564413 54.80602241 57.27075195 53.52124023 C51.81569221 51.02782726 46.29577384 48.78082643 40.703125 46.6171875 C39.73324646 46.23896347 38.76336792 45.86073944 37.76409912 45.47105408 C34.69801767 44.27598342 31.63034109 43.08507653 28.5625 41.89453125 C25.51761085 40.70995021 22.47306799 39.52448748 19.42883301 38.33822632 C17.45901027 37.57131098 15.48855899 36.80600791 13.51745605 36.04238892 C9.23571526 34.38042512 4.96537199 32.70283511 0.72851562 30.92919922 C0.04448669 30.64515732 -0.63954224 30.36111542 -1.34429932 30.06846619 C-3.11242066 29.32964265 -4.87532533 28.57836734 -6.63769531 27.82592773 C-13.04863395 25.73667612 -17.67163792 27.28501223 -23.7109375 29.77734375 C-24.90187263 30.25379333 -24.90187263 30.25379333 -26.11686707 30.73986816 C-28.76919988 31.80308442 -31.41563357 32.88028692 -34.0625 33.95703125 C-35.94213769 34.71264399 -37.82227742 35.4670089 -39.70288086 36.22021484 C-42.73192871 37.43345402 -45.7606638 38.64741772 -48.78800964 39.86489868 C-60.68946134 44.64911295 -72.63061942 49.33206036 -84.57232666 54.0145874 C-89.32296099 55.87786416 -94.07240833 57.74415482 -98.82171631 59.61080933 C-101.03904039 60.48122821 -103.25700119 61.35002712 -105.47564697 62.21707153 C-110.39410711 64.13943042 -115.3048135 66.07559724 -120.19482422 68.06933594 C-121.02948715 68.40565033 -121.86415009 68.74196472 -122.72410583 69.08847046 C-124.24739899 69.7030697 -125.76731376 70.32614472 -127.28285217 70.95962524 C-132.13766767 72.9043876 -132.13766767 72.9043876 -135.16235352 72.50634766 C-135.66565186 72.28382324 -136.1689502 72.06129883 -136.6875 71.83203125 C-136.0373291 70.70559204 -136.0373291 70.70559204 -135.37402344 69.55639648 C-133.74874134 66.7403846 -132.1235942 63.9242949 -130.49853516 61.1081543 C-129.79839299 59.89490748 -129.09819878 58.68169069 -128.39794922 57.46850586 C-128.05908691 56.88141846 -127.72022461 56.29433105 -127.37109375 55.68945312 C-127.03646118 55.10982819 -126.70182861 54.53020325 -126.35705566 53.93301392 C-125.37763769 52.23479087 -124.40070889 50.53513303 -123.42382812 48.83544922 C-122.39837773 47.0616738 -121.36418216 45.29282422 -120.31054688 43.53564453 C-118.15832575 39.94984149 -118.15832575 39.94984149 -117.6875 35.83203125 C-116.21990234 35.36023438 -116.21990234 35.36023438 -114.72265625 34.87890625 C-113.39835579 34.44686496 -112.07414169 34.01455891 -110.75 33.58203125 C-110.10998047 33.37707031 -109.46996094 33.17210937 -108.81054688 32.9609375 C-104.46497581 31.53403357 -100.33428679 29.82510313 -96.17163086 27.93408203 C-91.31841588 25.78101939 -86.37037777 23.85626644 -81.4375 21.89453125 C-80.39464844 21.47751953 -79.35179687 21.06050781 -78.27734375 20.63085938 C-71.87384381 18.07656563 -65.45050127 15.57877069 -59.01318359 13.11108398 C-53.20673291 10.87793209 -47.41591521 8.60510077 -41.625 6.33203125 C-40.44873047 5.87183594 -39.27246094 5.41164063 -38.06054688 4.9375 C-36.31161133 4.25107422 -36.31161133 4.25107422 -34.52734375 3.55078125 C-33.38507324 3.10476563 -32.24280273 2.65875 -31.06591797 2.19921875 C-28.82218867 1.29122019 -26.59620045 0.33802867 -24.39111328 -0.66015625 C-23.35583496 -1.12679688 -22.32055664 -1.5934375 -21.25390625 -2.07421875 C-20.34713135 -2.50025391 -19.44035645 -2.92628906 -18.50610352 -3.36523438 C-12.03938065 -5.20694808 -5.98034345 -2.36235613 0 0 Z " fill="#64B5A8" transform="translate(262.6875,303.16796875)"/>
<path d="M0 0 C1.32739611 0.55902557 2.65554692 1.11626186 3.984375 1.671875 C4.99854492 2.10016602 4.99854492 2.10016602 6.03320312 2.53710938 C9.24034997 3.86133074 12.49369824 5.05306477 15.75 6.25 C22.46912802 8.74338486 29.12550673 11.37707011 35.77368164 14.05322266 C44.57663216 17.59307756 53.40925174 21.05668341 62.24316406 24.51831055 C81.25594328 31.97172164 81.25594328 31.97172164 84.0625 33.375 C85.51476256 33.73386025 86.97426661 34.06388061 88.4375 34.375 C91.32705057 34.99349912 94.19945672 35.64289761 97.0625 36.375 C96.7015625 35.83230469 96.340625 35.28960937 95.96875 34.73046875 C95.5046875 34.01503906 95.040625 33.29960937 94.5625 32.5625 C94.0984375 31.85480469 93.634375 31.14710938 93.15625 30.41796875 C92.0625 28.375 92.0625 28.375 92.0625 25.375 C92.7225 25.375 93.3825 25.375 94.0625 25.375 C93.876875 24.75625 93.69125 24.1375 93.5 23.5 C93.0625 21.375 93.0625 21.375 94.0625 19.375 C96.125 18.75 96.125 18.75 98.0625 18.375 C98.0625 19.365 98.0625 20.355 98.0625 21.375 C99.3825 21.375 100.7025 21.375 102.0625 21.375 C102.3925 22.365 102.7225 23.355 103.0625 24.375 C102.7325 25.035 102.4025 25.695 102.0625 26.375 C102.94292969 26.5296875 103.82335937 26.684375 104.73046875 26.84375 C109.50741137 29.03901554 110.94781632 32.36155004 113.375 36.875 C113.81650391 37.66003906 114.25800781 38.44507813 114.71289062 39.25390625 C117.76179776 44.69804976 119.40748786 47.93522657 119.0625 54.375 C117.0625 56.375 117.0625 56.375 113.75 56.8125 C107.47250698 56.70806851 101.74697028 53.80129829 96.0625 51.375 C96.0625 50.715 96.0625 50.055 96.0625 49.375 C95.20785156 49.26671875 94.35320312 49.1584375 93.47265625 49.046875 C89.83133096 48.32945467 86.88177597 47.14542767 83.5 45.625 C82.26520657 45.07872738 81.02950641 44.53450034 79.79296875 43.9921875 C78.86170166 43.58371582 78.86170166 43.58371582 77.91162109 43.16699219 C74.01220565 41.49684383 70.0355204 40.02439931 66.0703125 38.51953125 C60.65797132 36.46002999 55.29624523 34.27437225 49.92456055 32.11157227 C39.89421051 28.08517339 29.82766492 24.15623404 19.75 20.25 C17.39123011 19.33537988 15.03255396 18.42052604 12.67434692 17.50445557 C11.16610384 16.91947592 9.65706559 16.33654172 8.14718628 15.75579834 C3.46799834 13.95021942 -1.1417455 12.03280031 -5.68823242 9.91064453 C-11.83436743 8.44699315 -17.79617334 11.26207183 -23.40625 13.54296875 C-24.20421997 13.86026443 -25.00218994 14.17756012 -25.82434082 14.50447083 C-28.3649953 15.51664188 -30.90125237 16.53934366 -33.4375 17.5625 C-35.10909389 18.23052157 -36.78096689 18.89784514 -38.453125 19.56445312 C-43.28465737 21.49285769 -48.11152839 23.43272904 -52.9375 25.375 C-63.3783525 29.5759284 -73.85482389 33.67019905 -84.37304688 37.67382812 C-92.58316449 40.81401208 -100.69755995 44.15059452 -108.78833008 47.58520508 C-113.55553126 49.59884287 -117.77466779 50.92605807 -122.9375 51.375 C-122.9375 50.385 -122.9375 49.395 -122.9375 48.375 C-122.2775 48.375 -121.6175 48.375 -120.9375 48.375 C-120.2775 46.065 -119.6175 43.755 -118.9375 41.375 C-118.2775 41.375 -117.6175 41.375 -116.9375 41.375 C-116.9375 40.385 -116.9375 39.395 -116.9375 38.375 C-115.4525 37.88 -115.4525 37.88 -113.9375 37.375 C-113.6075 36.715 -113.2775 36.055 -112.9375 35.375 C-111.1184082 34.60058594 -111.1184082 34.60058594 -108.73828125 33.859375 C-107.42960083 33.4415979 -107.42960083 33.4415979 -106.09448242 33.01538086 C-105.15580322 32.72155518 -104.21712402 32.42772949 -103.25 32.125 C-95.71607921 29.69611415 -88.49473169 27.0338789 -81.26171875 23.81640625 C-77.23345385 22.0697203 -73.13793643 20.55875764 -69.01782227 19.04443359 C-62.3150527 16.55705015 -55.68201894 13.89806162 -49.04788208 11.23431396 C-47.06888232 10.44006148 -45.08912256 9.64773311 -43.10913086 8.85595703 C-37.48022592 6.60395555 -31.85466857 4.34530757 -26.24609375 2.04296875 C-24.66414987 1.40342969 -23.08212676 0.76408653 -21.5 0.125 C-20.47447021 -0.30607056 -20.47447021 -0.30607056 -19.42822266 -0.74584961 C-12.19179757 -3.64060326 -7.04587621 -3.03634444 0 0 Z " fill="#383C3B" transform="translate(259.9375,290.625)"/>
<path d="M0 0 C3.27490088 3.27490088 4.88324986 5.91248249 7 10 C7 10.99 7 11.98 7 13 C7.66 13 8.32 13 9 13 C10.06775224 14.96466413 11.06553465 16.96855359 12 19 C11.67 19.66 11.34 20.32 11 21 C9.68 20.34 8.36 19.68 7 19 C7 17.35 7 15.7 7 14 C5.68 14 4.36 14 3 14 C2.67 13.34 2.34 12.68 2 12 C1.01 12 0.02 12 -1 12 C-1 13.98 -1 15.96 -1 18 C-2.796875 17.8359375 -2.796875 17.8359375 -5 17 C-6.703125 14.6015625 -6.703125 14.6015625 -8.25 11.625 C-8.77078125 10.64789063 -9.2915625 9.67078125 -9.828125 8.6640625 C-11 6 -11 6 -11 3 C-10.34 3 -9.68 3 -9 3 C-7.375 5.5 -7.375 5.5 -6 8 C-4.02 5.36 -2.04 2.72 0 0 Z " fill="#48433E" transform="translate(355,298)"/>
<path d="M0 0 C0 1.32 0 2.64 0 4 C-0.66 4 -1.32 4 -2 4 C-2.13277344 4.66386719 -2.26554688 5.32773437 -2.40234375 6.01171875 C-3.26822917 10.34114583 -4.13411458 14.67057292 -5 19 C-6.98 19.33 -8.96 19.66 -11 20 C-10.4740625 19.1028125 -10.4740625 19.1028125 -9.9375 18.1875 C-8.66695302 15.89186786 -8.66695302 15.89186786 -10 13 C-11.65 13.33 -13.3 13.66 -15 14 C-15.33432599 9.80978087 -14.56019917 7.69070245 -12.1875 4.25 C-11.66542969 3.47140625 -11.14335937 2.6928125 -10.60546875 1.890625 C-7.43784998 -1.83961219 -4.38057606 -0.87611521 0 0 Z M-10 11 C-9.67 11.66 -9.34 12.32 -9 13 C-8.67 12.34 -8.34 11.68 -8 11 C-8.66 11 -9.32 11 -10 11 Z " fill="#393836" transform="translate(177,259)"/>
<path d="M0 0 C0.66 0.99 1.32 1.98 2 3 C1.01 3.33 0.02 3.66 -1 4 C0.32 4 1.64 4 3 4 C3.474375 4.515625 3.94875 5.03125 4.4375 5.5625 C5.2109375 6.2740625 5.2109375 6.2740625 6 7 C8.65466049 6.76956136 8.65466049 6.76956136 11 6 C9.54955729 10.10958767 7.48889248 13.43258745 5 17 C4.01 16.34 3.02 15.68 2 15 C2.66 15 3.32 15 4 15 C3.67 14.01 3.34 13.02 3 12 C1.68 13.32 0.36 14.64 -1 16 C-1.33 15.34 -1.66 14.68 -2 14 C-5.26954202 14.56371414 -6.82575883 15.49962266 -9 18 C-9.33 17.34 -9.66 16.68 -10 16 C-8.61339541 13.40085394 -7.18124108 10.93165423 -5.625 8.4375 C-5.19960937 7.73947266 -4.77421875 7.04144531 -4.3359375 6.32226562 C-1.1896734 1.1896734 -1.1896734 1.1896734 0 0 Z " fill="#4E4A45" transform="translate(191,220)"/>
<path d="M0 0 C3.35020499 2.23346999 4.20557009 3.80285498 6.0625 7.3125 C6.56910156 8.25738281 7.07570313 9.20226562 7.59765625 10.17578125 C8.87431833 12.74688623 9.97922775 15.31864133 11 18 C8.14184149 18 6.62177971 17.63793553 3.98828125 16.6875 C2.85229492 16.28144531 2.85229492 16.28144531 1.69335938 15.8671875 C0.51483398 15.43792969 0.51483398 15.43792969 -0.6875 15 C-1.48478516 14.71382813 -2.28207031 14.42765625 -3.10351562 14.1328125 C-5.07053334 13.42609955 -7.03547099 12.71360189 -9 12 C-9 11.67 -9 11.34 -9 11 C-6.69 10.34 -4.38 9.68 -2 9 C-1.34 6.03 -0.68 3.06 0 0 Z " fill="#7BBBA7" transform="translate(363,358)"/>
<path d="M0 0 C1.1446875 0.2475 1.1446875 0.2475 2.3125 0.5 C5.03596236 1.09145396 5.03596236 1.09145396 8 1 C9.75 2.1875 9.75 2.1875 11 4 C11 8.90069503 8.12713557 11.55213258 5 15 C4.67 14.34 4.34 13.68 4 13 C3.34 12.67 2.68 12.34 2 12 C-0.6875 9.6875 -0.6875 9.6875 -3 7 C-2.90847363 3.88810326 -1.76883749 2.65325623 0 0 Z " fill="#3E3C39" transform="translate(344,292)"/>
<path d="M0 0 C1.875 0.125 1.875 0.125 4 1 C5.25 4.0625 5.25 4.0625 6 7 C6.66 7 7.32 7 8 7 C8.33 9.31 8.66 11.62 9 14 C9.66 14 10.32 14 11 14 C11 14.66 11 15.32 11 16 C10.34 16 9.68 16 9 16 C9 16.66 9 17.32 9 18 C7.1875 19.0625 7.1875 19.0625 5 20 C4.01 19.67 3.02 19.34 2 19 C2 18.34 2 17.68 2 17 C1.649375 16.175 1.29875 15.35 0.9375 14.5 C0.628125 13.675 0.31875 12.85 0 12 C0.33 11.34 0.66 10.68 1 10 C1.15898854 8.08499697 1.15898854 8.08499697 1.125 6 C1.12757813 5.29875 1.13015625 4.5975 1.1328125 3.875 C1.11377236 1.90846225 1.11377236 1.90846225 0 0 Z " fill="#383838" transform="translate(264,146)"/>
<path d="M0 0 C0.433125 0.9590625 0.433125 0.9590625 0.875 1.9375 C1.82823451 4.15206079 1.82823451 4.15206079 4 5 C4 5.99 4 6.98 4 8 C5.32 8.33 6.64 8.66 8 9 C7.67 11.31 7.34 13.62 7 16 C0.64 17.32 0.64 17.32 -2 16 C-3.55854182 12.88291635 -2.68784644 10.3141692 -2 7 C-1.34 7 -0.68 7 0 7 C-0.2784375 5.824375 -0.2784375 5.824375 -0.5625 4.625 C-1 2 -1 2 0 0 Z " fill="#383838" transform="translate(289,187)"/>
<path d="M0 0 C2.72426311 2.35277269 3.8141763 4.62496331 5 8 C3.68 8 2.36 8 1 8 C1.33 8.66 1.66 9.32 2 10 C-0.375 11.0625 -0.375 11.0625 -3 12 C-3.66 11.67 -4.32 11.34 -5 11 C-5 11.66 -5 12.32 -5 13 C-4.01 13.33 -3.02 13.66 -2 14 C-2.66 14 -3.32 14 -4 14 C-4.33 14.99 -4.66 15.98 -5 17 C-5.25394531 16.46890625 -5.50789063 15.9378125 -5.76953125 15.390625 C-7.58349524 11.6675828 -9.3313518 8.20237785 -12 5 C-11.67 4.34 -11.34 3.68 -11 3 C-10.34 3 -9.68 3 -9 3 C-8.67 4.32 -8.34 5.64 -8 7 C-6.12119128 6.95231597 -6.12119128 6.95231597 -4 6 C-1.73674754 3.02236957 -1.73674754 3.02236957 0 0 Z " fill="#565045" transform="translate(297,197)"/>
<path d="M0 0 C0.66 0.99 1.32 1.98 2 3 C1.34 3 0.68 3 0 3 C-0.12117187 3.61488281 -0.24234375 4.22976563 -0.3671875 4.86328125 C-0.61855469 6.07564453 -0.61855469 6.07564453 -0.875 7.3125 C-1.11863281 8.51326172 -1.11863281 8.51326172 -1.3671875 9.73828125 C-2 12 -2 12 -4 15 C-4.66 15 -5.32 15 -6 15 C-6.2475 15.804375 -6.495 16.60875 -6.75 17.4375 C-7.36875 18.7059375 -7.36875 18.7059375 -8 20 C-10.078125 20.66015625 -10.078125 20.66015625 -12 21 C-11.51789063 20.10796875 -11.03578125 19.2159375 -10.5390625 18.296875 C-9.90100965 17.11460061 -9.2629906 15.93230798 -8.625 14.75 C-7.99851562 13.58984375 -7.37203125 12.4296875 -6.7265625 11.234375 C-5.44714265 8.83763374 -4.19540887 6.43911709 -3 4 C-2.34 4 -1.68 4 -1 4 C-0.67 2.68 -0.34 1.36 0 0 Z " fill="#5D5447" transform="translate(135,315)"/>
<path d="M0 0 C0.66 0 1.32 0 2 0 C3.64826111 2.96687001 4.44271087 5.65626525 5 9 C4.2575 9.144375 3.515 9.28875 2.75 9.4375 C0.47972261 9.90187492 -1.75759479 10.41863569 -4 11 C-4.33 10.01 -4.66 9.02 -5 8 C-5.66 8.99 -6.32 9.98 -7 11 C-7 9.35 -7 7.7 -7 6 C-6.401875 5.7525 -5.80375 5.505 -5.1875 5.25 C-2.71222841 3.83555909 -1.66569196 2.27139812 0 0 Z " fill="#383736" transform="translate(242,140)"/>
<path d="M0 0 C2.46245074 0.3784398 3.67520538 0.61083167 5.30078125 2.55859375 C6.26069107 4.34128342 7.13325366 6.17020217 8 8 C7.67 8.66 7.34 9.32 7 10 C6.01 9.34 5.02 8.68 4 8 C3.01 8.495 3.01 8.495 2 9 C2.33 7.02 2.66 5.04 3 3 C0.30729616 5.33367666 -0.91717858 6.73600673 -2 10.1875 C-2.495 11.5796875 -2.495 11.5796875 -3 13 C-5.125 13.875 -5.125 13.875 -7 14 C-5.23570801 9.02790438 -2.6060834 4.56561939 0 0 Z " fill="#87B59D" transform="translate(250,164)"/>
<path d="M0 0 C2 3 2 3 1.81640625 5.35546875 C0.89349853 8.34498322 -0.40259896 10.66372175 -2.0625 13.3125 C-2.61035156 14.19550781 -3.15820312 15.07851563 -3.72265625 15.98828125 C-4.35494141 16.98408203 -4.35494141 16.98408203 -5 18 C-6.20220203 14.46905698 -5.79532349 11.87101018 -5.0625 8.25 C-4.86785156 7.26515625 -4.67320312 6.2803125 -4.47265625 5.265625 C-4.31667969 4.51796875 -4.16070312 3.7703125 -4 3 C-3.01 3.33 -2.02 3.66 -1 4 C-0.67 2.68 -0.34 1.36 0 0 Z " fill="#565048" transform="translate(178,259)"/>
<path d="M0 0 C0.99 0.33 1.98 0.66 3 1 C3 1.66 3 2.32 3 3 C4.65 3 6.3 3 8 3 C8 3.66 8 4.32 8 5 C8.66 5 9.32 5 10 5 C10 5.66 10 6.32 10 7 C9.071875 7.144375 8.14375 7.28875 7.1875 7.4375 C3.99274889 7.92100111 3.99274889 7.92100111 1 9 C0.54625 8.34 0.0925 7.68 -0.375 7 C-0.91125 6.34 -1.4475 5.68 -2 5 C-2.66 5 -3.32 5 -4 5 C-3.67 4.01 -3.34 3.02 -3 2 C-2.01 2.33 -1.02 2.66 0 3 C0 2.01 0 1.02 0 0 Z " fill="#373735" transform="translate(325,258)"/>
<path d="M0 0 C5.88754836 0.54305845 10.92452101 1.76845631 16.4375 3.875 C17.15615234 4.13152344 17.87480469 4.38804687 18.61523438 4.65234375 C20.44815658 5.34120403 22.230269 6.1620355 24 7 C24.33 7.99 24.66 8.98 25 10 C18.67857446 8.8600708 13.36903182 6.99567608 7.578125 4.21875 C5.08529986 3.04032357 2.56952503 1.99823275 0 1 C0 0.67 0 0.34 0 0 Z " fill="#94C1AC" transform="translate(309,351)"/>
<path d="M0 0 C1.32 0.33 2.64 0.66 4 1 C1.92195591 3.07804409 0.63400605 3.68327147 -2.0625 4.7265625 C-2.85914063 5.0359375 -3.65578125 5.3453125 -4.4765625 5.6640625 C-5.30929688 5.98117187 -6.14203125 6.29828125 -7 6.625 C-7.83273438 6.94984375 -8.66546875 7.2746875 -9.5234375 7.609375 C-15.73102679 10 -15.73102679 10 -18 10 C-18 9.34 -18 8.68 -18 8 C-17.34 8 -16.68 8 -16 8 C-16 7.34 -16 6.68 -16 6 C-14.02 6 -12.04 6 -10 6 C-9.67 5.01 -9.34 4.02 -9 3 C-4.545 2.505 -4.545 2.505 0 2 C0 1.34 0 0.68 0 0 Z " fill="#88BCA3" transform="translate(164,359)"/>
<path d="M0 0 C1.32 0.33 2.64 0.66 4 1 C4 1.66 4 2.32 4 3 C3.34 3 2.68 3 2 3 C1.67 4.98 1.34 6.96 1 9 C-0.32 9 -1.64 9 -3 9 C-3.33 10.32 -3.66 11.64 -4 13 C-5.32 13.33 -6.64 13.66 -8 14 C-5.36 9.38 -2.72 4.76 0 0 Z " fill="#4A443D" transform="translate(215,179)"/>
<path d="M0 0 C2.31 0 4.62 0 7 0 C4.78035859 2.21964141 3.19628099 2.84038634 0.28125 3.9453125 C-0.65074219 4.29980469 -1.58273438 4.65429688 -2.54296875 5.01953125 C-3.51878906 5.38433594 -4.49460938 5.74914062 -5.5 6.125 C-6.47582031 6.49753906 -7.45164063 6.87007813 -8.45703125 7.25390625 C-15.72965316 10 -15.72965316 10 -18 10 C-18 9.34 -18 8.68 -18 8 C-17.01 8 -16.02 8 -15 8 C-15 7.34 -15 6.68 -15 6 C-11.12315913 4.80712589 -8.08378077 4 -4 4 C-4 3.34 -4 2.68 -4 2 C-2.68 2 -1.36 2 0 2 C0 1.34 0 0.68 0 0 Z " fill="#89BEA4" transform="translate(235,331)"/>
<path d="M0 0 C0.90105469 0.19464844 1.80210937 0.38929688 2.73046875 0.58984375 C3.41753906 0.74582031 4.10460937 0.90179688 4.8125 1.0625 C4.8125 2.0525 4.8125 3.0425 4.8125 4.0625 C-0.66082932 5.53095421 -3.30672548 4.50288726 -8.1875 2.0625 C-8.1875 1.4025 -8.1875 0.7425 -8.1875 0.0625 C-4.80475734 -1.06508089 -3.41971777 -0.75500262 0 0 Z " fill="#76BBA1" transform="translate(307.1875,345.9375)"/>
<path d="M0 0 C3.3502463 3.81234923 5.16974789 7.33285711 7 12 C0.44979687 10.66569936 0.44979687 10.66569936 -1.5625 7.6875 C-2.08639881 4.46926448 -1.47316832 2.86449396 0 0 Z " fill="#56504A" transform="translate(328,251)"/>
<path d="M0 0 C3.98316776 0.55579085 7.28870342 1.49780853 11 3 C12.31008543 3.30232741 13.62286465 3.59311424 14.9375 3.875 C18.98942608 4.82839437 21.68475319 6.51356489 25 9 C23 10 23 10 20.66162109 9.28735352 C19.23197021 8.71392212 19.23197021 8.71392212 17.7734375 8.12890625 C16.7421875 7.71962891 15.7109375 7.31035156 14.6484375 6.88867188 C13.56820313 6.45103516 12.48796875 6.01339844 11.375 5.5625 C10.28703125 5.12873047 9.1990625 4.69496094 8.078125 4.24804688 C5.38259352 3.17219878 2.69013541 2.08925535 0 1 C0 0.67 0 0.34 0 0 Z " fill="#92C0A4" transform="translate(258,331)"/>
<path d="M0 0 C1.19873962 3.94727832 0.6900877 6.19730268 -1 10 C-1.99 10.33 -2.98 10.66 -4 11 C-4.33 11.99 -4.66 12.98 -5 14 C-5.99 14.33 -6.98 14.66 -8 15 C-6.62712658 11.30123909 -4.93644547 8.0485524 -2.875 4.6875 C-2.33617187 3.80449219 -1.79734375 2.92148437 -1.2421875 2.01171875 C-0.83226562 1.34785156 -0.42234375 0.68398438 0 0 Z " fill="#86BDA5" transform="translate(189,268)"/>
<path d="M0 0 C1.24546405 2.49092811 0.7767578 3.41080733 0 6 C0.721875 5.67 1.44375 5.34 2.1875 5 C5.01697427 3.99396471 7.02895466 3.83022598 10 4 C7.60939149 5.59373901 5.69171821 6.65297076 3.0625 7.6875 C2.39347656 7.95949219 1.72445312 8.23148437 1.03515625 8.51171875 C-1 9 -1 9 -5 8 C-3.35 5.36 -1.7 2.72 0 0 Z " fill="#9DC2A7" transform="translate(131,367)"/>
<path d="M0 0 C0.93065133 2.60582371 1.14917407 3.64198224 0.0625 6.25 C-0.288125 6.8275 -0.63875 7.405 -1 8 C-1.66 8 -2.32 8 -3 8 C-2.67 9.98 -2.34 11.96 -2 14 C-3.8125 15.5625 -3.8125 15.5625 -6 17 C-6.99 16.67 -7.98 16.34 -9 16 C-8.43410156 15.09636719 -7.86820313 14.19273437 -7.28515625 13.26171875 C-6.5441082 12.07041365 -5.80323173 10.87900181 -5.0625 9.6875 C-4.50272461 8.79514648 -4.50272461 8.79514648 -3.93164062 7.88476562 C-2.31175806 5.27252256 -0.97592942 2.92778827 0 0 Z " fill="#92BFAE" transform="translate(145,342)"/>
<path d="M0 0 C1.65 0.33 3.3 0.66 5 1 C4.401875 1.28875 3.80375 1.5775 3.1875 1.875 C0.80672208 3.04742026 0.80672208 3.04742026 -2 5 C-1.34 3.35 -0.68 1.7 0 0 Z M-14 5 C-13.30132812 5.08378906 -12.60265625 5.16757812 -11.8828125 5.25390625 C-10.97273438 5.35574219 -10.06265625 5.45757812 -9.125 5.5625 C-8.22007812 5.66691406 -7.31515625 5.77132813 -6.3828125 5.87890625 C-3.98346943 6.19674852 -3.98346943 6.19674852 -2 5 C-2 6.65 -2 8.3 -2 10 C-3.43931117 9.54738642 -4.87638999 9.08767021 -6.3125 8.625 C-7.11300781 8.36976563 -7.91351563 8.11453125 -8.73828125 7.8515625 C-11 7 -11 7 -14 5 Z " fill="#354746" transform="translate(281,300)"/>
<path d="M0 0 C0.66 0 1.32 0 2 0 C1.67 2.64 1.34 5.28 1 8 C-0.65 8.33 -2.3 8.66 -4 9 C-3.67 10.32 -3.34 11.64 -3 13 C-3.99 13.495 -3.99 13.495 -5 14 C-5.67578125 12.328125 -5.67578125 12.328125 -6 10 C-4.85546875 7.421875 -4.85546875 7.421875 -3.1875 4.75 C-2.37345703 3.41195312 -2.37345703 3.41195312 -1.54296875 2.046875 C-1.03378906 1.37140625 -0.52460938 0.6959375 0 0 Z " fill="#5B5447" transform="translate(206,194)"/>
<path d="M0 0 C-4.14517903 4.01146357 -8.34348187 5.48393126 -14 6 C-16.27734375 5.54296875 -16.27734375 5.54296875 -18 5 C-16.13103445 4.15321949 -14.25449819 3.32313789 -12.375 2.5 C-10.80878906 1.80390625 -10.80878906 1.80390625 -9.2109375 1.09375 C-5.91875709 -0.02767398 -3.44884777 -0.207138 0 0 Z " fill="#364D4A" transform="translate(239,293)"/>
<path d="M0 0 C3.22265625 5.2734375 3.22265625 5.2734375 4 7 C3.67 7.66 3.34 8.32 3 9 C2.67 8.67 2.34 8.34 2 8 C1.34 8.66 0.68 9.32 0 10 C0 9.34 0 8.68 0 8 C-0.66 8 -1.32 8 -2 8 C-2.66 5.69 -3.32 3.38 -4 1 C-2 0 -2 0 0 0 Z " fill="#5C5349" transform="translate(349,285)"/>
<path d="M0 0 C2.63520741 2.40502363 4.40302943 5.0185849 6.25 8.0625 C7.06210937 9.37927734 7.06210937 9.37927734 7.890625 10.72265625 C8.25671875 11.47417969 8.6228125 12.22570312 9 13 C8.67 13.66 8.34 14.32 8 15 C5.5 12.6875 5.5 12.6875 3 10 C3 9.01 3 8.02 3 7 C2.34 7 1.68 7 1 7 C0.67 4.69 0.34 2.38 0 0 Z " fill="#8FB8A7" transform="translate(310,265)"/>
<path d="M0 0 C2.31 0.33 4.62 0.66 7 1 C7.103125 1.721875 7.20625 2.44375 7.3125 3.1875 C8.06029278 6.24665229 9.34777805 8.34207773 11 11 C11 11.66 11 12.32 11 13 C8 12 8 12 6 10 C5.5078125 8.125 5.5078125 8.125 5.125 6 C4.44336706 2.6716884 4.44336706 2.6716884 1.875 0.5 C1.25625 0.335 0.6375 0.17 0 0 Z " fill="#89B8A1" transform="translate(349,339)"/>
<path d="M0 0 C2.72675159 2.40689803 4.11966596 4.92471023 5.6875 8.1875 C6.12449219 9.08855469 6.56148438 9.98960937 7.01171875 10.91796875 C7.33785156 11.60503906 7.66398437 12.29210937 8 13 C6.68 12.67 5.36 12.34 4 12 C4 11.01 4 10.02 4 9 C3.01 8.67 2.02 8.34 1 8 C0.67 5.36 0.34 2.72 0 0 Z " fill="#6B624E" transform="translate(289,183)"/>
<path d="M0 0 C1.32 0 2.64 0 4 0 C5.625 2.75 5.625 2.75 7 6 C6.0859375 8.203125 6.0859375 8.203125 5 10 C4.16121545 8.71186658 3.32913217 7.41936744 2.5 6.125 C2.0359375 5.40570313 1.571875 4.68640625 1.09375 3.9453125 C0 2 0 2 0 0 Z " fill="#696256" transform="translate(352,317)"/>
<path d="M0 0 C1.31538327 4.15771494 0.34433068 6.8879297 -1 11 C-1.33 10.34 -1.66 9.68 -2 9 C-2.66 9 -3.32 9 -4 9 C-4.33 10.65 -4.66 12.3 -5 14 C-5.66 14 -6.32 14 -7 14 C-5.53967505 8.68972746 -3.01679014 4.53669968 0 0 Z " fill="#8EBFA0" transform="translate(212,229)"/>
<path d="M0 0 C0.66 1.32 1.32 2.64 2 4 C1.34 4.66 0.68 5.32 0 6 C-0.16687448 8.58354218 -0.16687448 8.58354218 0 11 C-0.99 11.495 -0.99 11.495 -2 12 C-2 11.34 -2 10.68 -2 10 C-2.99 10.33 -3.98 10.66 -5 11 C-3.77472971 6.94718288 -2.30119506 3.55639236 0 0 Z " fill="#61594F" transform="translate(197,209)"/>
<path d="M0 0 C0.66 0 1.32 0 2 0 C2 0.99 2 1.98 2 3 C1.34 3 0.68 3 0 3 C0 4.98 0 6.96 0 9 C-1.32 8.34 -2.64 7.68 -4 7 C-4 5.02 -4 3.04 -4 1 C-3.01 1 -2.02 1 -1 1 C-0.67 0.67 -0.34 0.34 0 0 Z " fill="#3A3836" transform="translate(279,176)"/>
<path d="M0 0 C-1.93467942 0.83986084 -3.87285129 1.67168027 -5.8125 2.5 C-7.43091797 3.19609375 -7.43091797 3.19609375 -9.08203125 3.90625 C-12 5 -12 5 -15 5 C-15 4.34 -15 3.68 -15 3 C-13.25531628 2.29911844 -11.50398839 1.61475991 -9.75 0.9375 C-8.77546875 0.55464844 -7.8009375 0.17179687 -6.796875 -0.22265625 C-3.95992605 -1.01113787 -2.70590448 -1.02437812 0 0 Z " fill="#8DBDA3" transform="translate(191,352)"/>
<path d="M0 0 C0.33 1.32 0.66 2.64 1 4 C0.34 4 -0.32 4 -1 4 C-1.12375 4.763125 -1.2475 5.52625 -1.375 6.3125 C-2 9 -2 9 -4 12 C-4.66 12 -5.32 12 -6 12 C-6 12.66 -6 13.32 -6 14 C-6.66 13.67 -7.32 13.34 -8 13 C-5.36 8.71 -2.72 4.42 0 0 Z " fill="#A0C6A9" transform="translate(165,309)"/>
<path d="M0 0 C0.99 0 1.98 0 3 0 C2.32902328 4.19360449 0.1441606 7.40334352 -2 11 C-2.33 11 -2.66 11 -3 11 C-3 8.69 -3 6.38 -3 4 C-2.34 4 -1.68 4 -1 4 C-0.67 2.68 -0.34 1.36 0 0 Z " fill="#665E4F" transform="translate(205,215)"/>
<path d="M0 0 C0 1.65 0 3.3 0 5 C0.99 5.33 1.98 5.66 3 6 C4.1875 9.0625 4.1875 9.0625 5 12 C4.01 12 3.02 12 2 12 C1.16151196 10.54462432 0.32936066 9.08559627 -0.5 7.625 C-1.19609375 6.40683594 -1.19609375 6.40683594 -1.90625 5.1640625 C-3 3 -3 3 -3 1 C-1 0 -1 0 0 0 Z " fill="#675E51" transform="translate(313,242)"/>
<path d="M0 0 C-2.34876467 1.56584311 -4.54545647 2.82514963 -7.0625 4.0625 C-7.75472656 4.40410156 -8.44695312 4.74570312 -9.16015625 5.09765625 C-9.76730469 5.39542969 -10.37445313 5.69320313 -11 6 C-11.99 6.495 -11.99 6.495 -13 7 C-15.125 6.0625 -15.125 6.0625 -17 5 C-15.10908264 4.15557119 -13.21202485 3.32488413 -11.3125 2.5 C-10.25675781 2.0359375 -9.20101562 1.571875 -8.11328125 1.09375 C-5.14372184 0.05049199 -3.10804937 -0.23065301 0 0 Z " fill="#65A197" transform="translate(252,299)"/>
<path d="M0 0 C1.65 0.33 3.3 0.66 5 1 C4.01 1.495 4.01 1.495 3 2 C3 3.65 3 5.3 3 7 C1.68 7.33 0.36 7.66 -1 8 C-1.625 5.6875 -1.625 5.6875 -2 3 C-1.34 2.01 -0.68 1.02 0 0 Z " fill="#3C3933" transform="translate(153,298)"/>
<path d="M0 0 C0.33 0.66 0.66 1.32 1 2 C1.66 2.33 2.32 2.66 3 3 C1.68 3.33 0.36 3.66 -1 4 C-1.0825 4.78375 -1.165 5.5675 -1.25 6.375 C-2 9 -2 9 -4.0625 10.3125 C-5.0215625 10.6528125 -5.0215625 10.6528125 -6 11 C-4.54955729 6.89041233 -2.48889248 3.56741255 0 0 Z " fill="#696250" transform="translate(168,259)"/>
<path d="M0 0 C2.40575607 2.18517099 3.79535581 4.25919671 5.1875 7.1875 C5.53167969 7.90292969 5.87585938 8.61835938 6.23046875 9.35546875 C6.48441406 9.89816406 6.73835938 10.44085938 7 11 C6.34 11.66 5.68 12.32 5 13 C3 11 3 11 2.875 8.375 C2.91625 7.59125 2.9575 6.8075 3 6 C2.34 6 1.68 6 1 6 C0.67 4.02 0.34 2.04 0 0 Z " fill="#675C50" transform="translate(321,239)"/>
<path d="M0 0 C1.07694171 2.80004844 0.95876997 4.1911574 0.3125 7.1875 C-1 10 -1 10 -3.125 10.875 C-3.74375 10.91625 -4.3625 10.9575 -5 11 C-3.55049545 7.2089881 -1.84827434 3.6125362 0 0 Z " fill="#96C2AC" transform="translate(248,167)"/>
<path d="M0 0 C3.2843893 2.98999026 4.38083305 5.91353103 6 10 C3 10 3 10 1 9 C0.5859375 6.93359375 0.5859375 6.93359375 0.375 4.4375 C0.30023438 3.61121094 0.22546875 2.78492188 0.1484375 1.93359375 C0.09945313 1.29550781 0.05046875 0.65742188 0 0 Z " fill="#94BCA2" transform="translate(368,366)"/>
<path d="M0 0 C1.52139933 2.02853243 3.03759324 4.0532571 4.5 6.125 C6.04241242 8.24725536 6.04241242 8.24725536 9 10 C7.02 10 5.04 10 3 10 C3 9.34 3 8.68 3 8 C2.01 7.67 1.02 7.34 0 7 C0 4.69 0 2.38 0 0 Z " fill="#87A493" transform="translate(339,315)"/>
<path d="M0 0 C0.66 0 1.32 0 2 0 C1.67 2.31 1.34 4.62 1 7 C-2 7 -2 7 -4 6 C-2.7260411 3.96166576 -1.38938077 1.96147874 0 0 Z " fill="#5D584E" transform="translate(157,278)"/>
<path d="M0 0 C-2.64 1.65 -5.28 3.3 -8 5 C-8.33 4.34 -8.66 3.68 -9 3 C-9.99 2.67 -10.98 2.34 -12 2 C-10.75579353 1.4654744 -9.50429064 0.94791389 -8.25 0.4375 C-7.55390625 0.14746094 -6.8578125 -0.14257812 -6.140625 -0.44140625 C-4 -1 -4 -1 0 0 Z " fill="#635F54" transform="translate(159,324)"/>
<path d="M0 0 C1 3 1 3 -0.4375 6.1875 C-1.2109375 7.5796875 -1.2109375 7.5796875 -2 9 C-2.66 9 -3.32 9 -4 9 C-4.33 10.32 -4.66 11.64 -5 13 C-6 10 -6 10 -4.78515625 7.51953125 C-4.21667969 6.62621094 -3.64820313 5.73289063 -3.0625 4.8125 C-2.49660156 3.91144531 -1.93070313 3.01039063 -1.34765625 2.08203125 C-0.90292969 1.39496094 -0.45820313 0.70789063 0 0 Z " fill="#89BEA6" transform="translate(225,207)"/>
<path d="M0 0 C1.65 0 3.3 0 5 0 C4.375 2.375 4.375 2.375 3 5 C-0.125 6.3125 -0.125 6.3125 -3 7 C-1.125 2.25 -1.125 2.25 0 0 Z " fill="#635D53" transform="translate(220,170)"/>
<path d="M0 0 C2.81484045 1.40742022 3.27483399 3.25557592 4.625 6.0625 C5.07101562 6.98160156 5.51703125 7.90070313 5.9765625 8.84765625 C6.31429688 9.55792969 6.65203125 10.26820313 7 11 C5.66666667 11 4.33333333 11 3 11 C3 9.35 3 7.7 3 6 C2.34 6 1.68 6 1 6 C0.67 4.02 0.34 2.04 0 0 Z " fill="#786E61" transform="translate(265,141)"/>
<path d="M0 0 C0.99 0 1.98 0 3 0 C3 0.66 3 1.32 3 2 C2.34 2 1.68 2 1 2 C1 2.66 1 3.32 1 4 C0.34 4 -0.32 4 -1 4 C-1.103125 4.639375 -1.20625 5.27875 -1.3125 5.9375 C-1.539375 6.618125 -1.76625 7.29875 -2 8 C-2.99 8.33 -3.98 8.66 -5 9 C-3.76067171 5.56801397 -2.49698489 2.69674368 0 0 Z " fill="#6D6658" transform="translate(248,124)"/>
<path d="M0 0 C3.81300782 3.2870757 5.22972246 6.39727838 7 11 C5.68 11 4.36 11 3 11 C1.875 7.25 1.875 7.25 3 5 C2.34 5 1.68 5 1 5 C0.67 3.35 0.34 1.7 0 0 Z " fill="#70684D" transform="translate(368,321)"/>
<path d="M0 0 C0.33 0.99 0.66 1.98 1 3 C1.66 3 2.32 3 3 3 C4.06775224 4.96466413 5.06553465 6.96855359 6 9 C5.67 9.66 5.34 10.32 5 11 C3.046875 10.2890625 3.046875 10.2890625 1 9 C0.390625 6.8359375 0.390625 6.8359375 0.25 4.375 C0.19328125 3.55773437 0.1365625 2.74046875 0.078125 1.8984375 C0.05234375 1.27195312 0.0265625 0.64546875 0 0 Z " fill="#6E6156" transform="translate(361,308)"/>
<path d="M0 0 C-0.56589844 0.27714844 -1.13179687 0.55429687 -1.71484375 0.83984375 C-2.44832031 1.20207031 -3.18179688 1.56429688 -3.9375 1.9375 C-5.03384766 2.47697266 -5.03384766 2.47697266 -6.15234375 3.02734375 C-7.96249027 3.86371827 -7.96249027 3.86371827 -9 5 C-10.99958364 5.04080783 -13.00045254 5.04254356 -15 5 C-12.62383533 2.62383533 -10.64650479 1.95931819 -7.5 0.8125 C-6.5203125 0.44769531 -5.540625 0.08289063 -4.53125 -0.29296875 C-2 -1 -2 -1 0 0 Z " fill="#629B92" transform="translate(222,311)"/>
<path d="M0 0 C0.6875 1.6875 0.6875 1.6875 1 4 C-0.3125 6.75 -0.3125 6.75 -2 9 C-2.66 9 -3.32 9 -4 9 C-4 9.99 -4 10.98 -4 12 C-4.66 12 -5.32 12 -6 12 C-4.43358249 7.69235185 -2.31663844 3.93828536 0 0 Z " fill="#93BFA9" transform="translate(232,195)"/>
<path d="M0 0 C2.23960447 2.87949147 4.29864224 5.76742026 6 9 C5.67 9.66 5.34 10.32 5 11 C3.0625 10 3.0625 10 1 8 C0.33450549 5.30075428 0.18319237 2.79368363 0 0 Z " fill="#8FBDA0" transform="translate(330,299)"/>
<path d="M0 0 C1.32 0 2.64 0 4 0 C2.8141763 3.37503669 1.72426311 5.64722731 -1 8 C-1.04241723 5.66705225 -1.04092937 3.33297433 -1 1 C-0.67 0.67 -0.34 0.34 0 0 Z " fill="#5B5447" transform="translate(198,226)"/>
<path d="M0 0 C2.475 0.495 2.475 0.495 5 1 C5 3.31 5 5.62 5 8 C2.20127563 5.47211993 0.54226981 3.79588866 0 0 Z " fill="#696157" transform="translate(280,191)"/>
<path d="M0 0 C-1.7902061 0.67057887 -3.58221489 1.3363469 -5.375 2 C-6.37273437 2.37125 -7.37046875 2.7425 -8.3984375 3.125 C-11 4 -11 4 -13 4 C-13 3.34 -13 2.68 -13 2 C-3.60674157 -1.20224719 -3.60674157 -1.20224719 0 0 Z " fill="#314243" transform="translate(174,329)"/>
<path d="M0 0 C0.33 1.32 0.66 2.64 1 4 C0.01 4.33 -0.98 4.66 -2 5 C-2.33 6.65 -2.66 8.3 -3 10 C-3.66 10 -4.32 10 -5 10 C-3.84414715 6.08788267 -2.64465038 3.1254959 0 0 Z " fill="#95C1A4" transform="translate(204,243)"/>
<path d="M0 0 C3.125 0.6875 3.125 0.6875 6 2 C6.33 2.99 6.66 3.98 7 5 C3.7 4.01 0.4 3.02 -3 2 C-2.01 1.34 -1.02 0.68 0 0 Z " fill="#7D735D" transform="translate(364,342)"/>
<path d="M0 0 C0 1.98 0 3.96 0 6 C-1.32 6.33 -2.64 6.66 -4 7 C-3.625 4.0625 -3.625 4.0625 -3 1 C-1 0 -1 0 0 0 Z " fill="#3B3735" transform="translate(150,308)"/>
<path d="M0 0 C2.15377564 2.62198774 3.40072174 4.64404172 4 8 C3.01 8 2.02 8 1 8 C-1 5 -1 5 -0.625 2.3125 C-0.41875 1.549375 -0.2125 0.78625 0 0 Z " fill="#675F54" transform="translate(317,231)"/>
<path d="M0 0 C1 4 1 4 0.3125 6.1875 C-1 8 -1 8 -5 9 C-3.35 6.03 -1.7 3.06 0 0 Z " fill="#685F4D" transform="translate(212,184)"/>
<path d="M0 0 C0.33 0.66 0.66 1.32 1 2 C0.00390625 3.9453125 0.00390625 3.9453125 -1.4375 6.125 C-1.91058594 6.84945312 -2.38367188 7.57390625 -2.87109375 8.3203125 C-3.24363281 8.87460938 -3.61617187 9.42890625 -4 10 C-4.33 8.68 -4.66 7.36 -5 6 C-4.34 6 -3.68 6 -3 6 C-2.87625 5.195625 -2.7525 4.39125 -2.625 3.5625 C-2.41875 2.716875 -2.2125 1.87125 -2 1 C-1.34 0.67 -0.68 0.34 0 0 Z " fill="#746E59" transform="translate(245,151)"/>
<path d="M0 0 C0.99 0 1.98 0 3 0 C3.53012738 1.28788008 4.0488329 2.58046678 4.5625 3.875 C4.99755859 4.95394531 4.99755859 4.95394531 5.44140625 6.0546875 C6 8 6 8 5 10 C4.16121545 8.71186658 3.32913217 7.41936744 2.5 6.125 C2.0359375 5.40570313 1.571875 4.68640625 1.09375 3.9453125 C0 2 0 2 0 0 Z " fill="#7B7565" transform="translate(343,301)"/>
<path d="M0 0 C3.72433382 1.2125738 7.37802806 2.50859979 11 4 C11 4.33 11 4.66 11 5 C7.12459955 5.17615457 4.24484731 5.28341107 1 3 C0.67 2.01 0.34 1.02 0 0 Z " fill="#324745" transform="translate(288,302)"/>
<path d="M0 0 C4.42857143 5.14285714 4.42857143 5.14285714 5 9 C4.01 9 3.02 9 2 9 C0.50178941 5.62902617 0 3.79557881 0 0 Z " fill="#85BAA2" transform="translate(282,216)"/>
<path d="M0 0 C2.0625 0.4375 2.0625 0.4375 4 1 C2 4 2 4 -0.125 4.6875 C-0.74375 4.790625 -1.3625 4.89375 -2 5 C-1.125 1.125 -1.125 1.125 0 0 Z " fill="#383739" transform="translate(251,136)"/>
<path d="M0 0 C2.97 0.33 5.94 0.66 9 1 C9.33 1.99 9.66 2.98 10 4 C6.7 3.01 3.4 2.02 0 1 C0 0.67 0 0.34 0 0 Z " fill="#96C4A1" transform="translate(283,341)"/>
<path d="M0 0 C-0.66 1.32 -1.32 2.64 -2 4 C-4.31 4 -6.62 4 -9 4 C-3 0 -3 0 0 0 Z " fill="#609E94" transform="translate(231,306)"/>
<path d="M0 0 C1.04449911 3.13349732 0.93423645 3.98968256 0 7 C-0.66 7 -1.32 7 -2 7 C-2 7.66 -2 8.32 -2 9 C-2.66 9 -3.32 9 -4 9 C-2.94124926 5.59687262 -1.99097846 2.98646769 0 0 Z " fill="#746557" transform="translate(173,250)"/>
<path d="M0 0 C-0.66 1.32 -1.32 2.64 -2 4 C-4.97 3.505 -4.97 3.505 -8 3 C-5.48696401 0.48696401 -3.51117809 0 0 0 Z " fill="#394647" transform="translate(188,312)"/>
<path d="M0 0 C0.75 1.75 0.75 1.75 1 4 C-0.9375 6.25 -0.9375 6.25 -3 8 C-3 4.42424104 -1.91159393 2.94704065 0 0 Z " fill="#97C2A5" transform="translate(185,275)"/>
<path d="M0 0 C0.99 0.33 1.98 0.66 3 1 C2.34 1 1.68 1 1 1 C1.33 3.64 1.66 6.28 2 9 C0.68 7.35 -0.64 5.7 -2 4 C-1.34 2.68 -0.68 1.36 0 0 Z " fill="#5E564B" transform="translate(308,234)"/>
<path d="M0 0 C0.99 0.33 1.98 0.66 3 1 C1.625 2.5 1.625 2.5 0 4 C-0.66 4 -1.32 4 -2 4 C-2.33 4.99 -2.66 5.98 -3 7 C-3 5.68 -3 4.36 -3 3 C-2.34 3 -1.68 3 -1 3 C-0.67 2.01 -0.34 1.02 0 0 Z " fill="#383631" transform="translate(185,234)"/>
<path d="M0 0 C2.475 0.99 2.475 0.99 5 2 C4.67 3.65 4.34 5.3 4 7 C0 2.25 0 2.25 0 0 Z " fill="#605D50" transform="translate(276,184)"/>
<path d="M0 0 C2.50037734 2.17424117 3.43628586 3.73045798 4 7 C2.68 6.67 1.36 6.34 0 6 C0 4.02 0 2.04 0 0 Z " fill="#99C5B6" transform="translate(258,174)"/>
<path d="M0 0 C0.99 0.33 1.98 0.66 3 1 C4.1875 3.5625 4.1875 3.5625 5 6 C4.38125 5.649375 3.7625 5.29875 3.125 4.9375 C2.073125 4.4734375 2.073125 4.4734375 1 4 C0.01 4.495 0.01 4.495 -1 5 C-0.67 3.35 -0.34 1.7 0 0 Z " fill="#81BCA5" transform="translate(253,168)"/>
<path d="" fill="#FFFFFF" transform="translate(0,0)"/>
<path d="" fill="#FFFFFF" transform="translate(0,0)"/>
<path d="" fill="#FFFFFF" transform="translate(0,0)"/>
<path d="" fill="#FFFFFF" transform="translate(0,0)"/>
<path d="" fill="#FFFFFF" transform="translate(0,0)"/>
<path d="" fill="#FFFFFF" transform="translate(0,0)"/>
<path d="" fill="#FFFFFF" transform="translate(0,0)"/>
<path d="" fill="#FFFFFF" transform="translate(0,0)"/>
<path d="" fill="#FFFFFF" transform="translate(0,0)"/>
<path d="" fill="#FFFFFF" transform="translate(0,0)"/>
<path d="" fill="#FFFFFF" transform="translate(0,0)"/>
<path d="" fill="#FFFFFF" transform="translate(0,0)"/>
<path d="" fill="#FFFFFF" transform="translate(0,0)"/>
<path d="" fill="#FFFFFF" transform="translate(0,0)"/>
<path d="" fill="#FFFFFF" transform="translate(0,0)"/>
<path d="" fill="#FFFFFF" transform="translate(0,0)"/>
<path d="" fill="#FFFFFF" transform="translate(0,0)"/>
<path d="" fill="#FFFFFF" transform="translate(0,0)"/>
<path d="" fill="#FFFFFF" transform="translate(0,0)"/>
<path d="" fill="#FFFFFF" transform="translate(0,0)"/>
<path d="" fill="#FFFFFF" transform="translate(0,0)"/>
<path d="" fill="#FFFFFF" transform="translate(0,0)"/>
<path d="" fill="#FFFFFF" transform="translate(0,0)"/>
<path d="" fill="#FFFFFF" transform="translate(0,0)"/>
<path d="" fill="#FFFFFF" transform="translate(0,0)"/>
<path d="" fill="#FFFFFF" transform="translate(0,0)"/>
<path d="" fill="#FFFFFF" transform="translate(0,0)"/>
<path d="" fill="#FFFFFF" transform="translate(0,0)"/>
<path d="" fill="#FFFFFF" transform="translate(0,0)"/>
<path d="" fill="#FFFFFF" transform="translate(0,0)"/>
<path d="" fill="#FFFFFF" transform="translate(0,0)"/>
<path d="" fill="#FFFFFF" transform="translate(0,0)"/>
<path d="" fill="#FFFFFF" transform="translate(0,0)"/>
<path d="" fill="#FFFFFF" transform="translate(0,0)"/>
<path d="" fill="#FFFFFF" transform="translate(0,0)"/>
<path d="" fill="#FFFFFF" transform="translate(0,0)"/>
<path d="" fill="#FFFFFF" transform="translate(0,0)"/>
<path d="" fill="#FFFFFF" transform="translate(0,0)"/>
<path d="" fill="#FFFFFF" transform="translate(0,0)"/>
<path d="" fill="#FFFFFF" transform="translate(0,0)"/>
<path d="" fill="#FFFFFF" transform="translate(0,0)"/>
<path d="" fill="#FFFFFF" transform="translate(0,0)"/>
<path d="" fill="#FFFFFF" transform="translate(0,0)"/>
<path d="" fill="#FFFFFF" transform="translate(0,0)"/>
<path d="" fill="#FFFFFF" transform="translate(0,0)"/>
<path d="" fill="#FFFFFF" transform="translate(0,0)"/>
<path d="" fill="#FFFFFF" transform="translate(0,0)"/>
<path d="" fill="#FFFFFF" transform="translate(0,0)"/>
<path d="" fill="#FFFFFF" transform="translate(0,0)"/>
<path d="" fill="#FFFFFF" transform="translate(0,0)"/>
<path d="" fill="#FFFFFF" transform="translate(0,0)"/>
<path d="" fill="#FFFFFF" transform="translate(0,0)"/>
<path d="" fill="#FFFFFF" transform="translate(0,0)"/>
<path d="" fill="#FFFFFF" transform="translate(0,0)"/>
<path d="" fill="#FFFFFF" transform="translate(0,0)"/>
<path d="" fill="#FFFFFF" transform="translate(0,0)"/>
<path d="" fill="#FFFFFF" transform="translate(0,0)"/>
<path d="" fill="#FFFFFF" transform="translate(0,0)"/>
<path d="" fill="#FFFFFF" transform="translate(0,0)"/>
<path d="" fill="#FFFFFF" transform="translate(0,0)"/>
<path d="" fill="#FFFFFF" transform="translate(0,0)"/>
<path d="" fill="#FFFFFF" transform="translate(0,0)"/>
<path d="" fill="#FFFFFF" transform="translate(0,0)"/>
<path d="" fill="#FFFFFF" transform="translate(0,0)"/>
<path d="" fill="#FFFFFF" transform="translate(0,0)"/>
<path d="" fill="#FFFFFF" transform="translate(0,0)"/>
<path d="" fill="#FFFFFF" transform="translate(0,0)"/>
<path d="" fill="#FFFFFF" transform="translate(0,0)"/>
<path d="" fill="#FFFFFF" transform="translate(0,0)"/>
<path d="" fill="#FFFFFF" transform="translate(0,0)"/>
<path d="" fill="#FFFFFF" transform="translate(0,0)"/>
<path d="" fill="#FFFFFF" transform="translate(0,0)"/>
<path d="" fill="#FFFFFF" transform="translate(0,0)"/>
<path d="" fill="#FFFFFF" transform="translate(0,0)"/>
<path d="" fill="#FFFFFF" transform="translate(0,0)"/>
<path d="" fill="#FFFFFF" transform="translate(0,0)"/>
<path d="" fill="#FFFFFF" transform="translate(0,0)"/>
<path d="" fill="#FFFFFF" transform="translate(0,0)"/>
<path d="" fill="#FFFFFF" transform="translate(0,0)"/>
<path d="" fill="#FFFFFF" transform="translate(0,0)"/>
<path d="" fill="#FFFFFF" transform="translate(0,0)"/>
<path d="" fill="#FFFFFF" transform="translate(0,0)"/>
</svg>
